<svg xmlns="http://www.w3.org/2000/svg" xmlns:xlink="http://www.w3.org/1999/xlink" viewBox="0 0 48 48" version="1.1">
<g id="surface1">
<path style=" fill:#FFEB3B;" d="M 28.972656 28 C 28.972656 29.65625 27.628906 31 25.972656 31 L 12.972656 31 C 11.316406 31 9.972656 29.65625 9.972656 28 L 9.972656 8 C 9.972656 6.34375 11.316406 5 12.972656 5 L 25.972656 5 C 27.628906 5 28.972656 6.34375 28.972656 8 Z "></path>
<path style=" fill:#FFB74D;" d="M 37.816406 31.324219 L 34.023438 22.675781 C 33.550781 21.359375 32.863281 20.230469 31.578125 19.710938 C 31.082031 19.527344 30.171875 19.136719 28.972656 18.691406 L 28.972656 28 C 28.972656 29.65625 27.628906 31 25.972656 31 L 20.96875 31 L 18.972656 22.019531 C 18.660156 20.367188 17.878906 18.773438 15.285156 19.023438 C 14.316406 19.125 12.691406 20.054688 13.066406 22.460938 L 14.972656 35.007813 C 15.972656 41 20.316406 43 21.972656 43 L 32.972656 43 L 37.558594 33.382813 C 37.992188 32.8125 38.085938 31.921875 37.816406 31.324219 Z "></path>
<path style=" fill:#E69329;" d="M 30.972656 31 L 29.972656 26 C 29.8125 25.292969 29.480469 24.671875 28.972656 24.316406 L 28.972656 28 C 28.972656 29.65625 27.628906 31 25.972656 31 L 20.96875 31 L 21.191406 32 C 21.847656 34.5 23.757813 33.949219 23.757813 33.949219 L 28.972656 33 C 30.316406 32.75 31.160156 32.125 30.972656 31 Z "></path>
<path style=" fill:#FFCDD2;" d="M 17.910156 21.707031 C 18.070313 22.800781 14.109375 23.371094 13.953125 22.277344 C 13.792969 21.183594 14.554688 20.171875 15.644531 20.011719 C 16.742188 19.855469 17.753906 20.613281 17.910156 21.707031 Z "></path>
</g>
</svg>